<svg width="13" height="13" viewBox="0 0 13 13" fill="none" xmlns="http://www.w3.org/2000/svg">
<path d="M6.5 3.60547C7.04688 3.60547 7.56641 3.76953 8.05859 4.04297C8.55078 4.31641 8.93359 4.69922 9.20703 5.19141C9.48047 5.68359 9.64453 6.20312 9.64453 6.75C9.64453 7.32422 9.48047 7.84375 9.20703 8.33594C8.93359 8.82812 8.55078 9.21094 8.05859 9.48438C7.56641 9.75781 7.04688 9.89453 6.5 9.89453C5.92578 9.89453 5.40625 9.75781 4.91406 9.48438C4.42188 9.21094 4.03906 8.82812 3.76562 8.33594C3.49219 7.84375 3.35547 7.32422 3.35547 6.75C3.35547 6.20312 3.49219 5.68359 3.76562 5.19141C4.03906 4.69922 4.42188 4.31641 4.91406 4.04297C5.40625 3.76953 5.92578 3.60547 6.5 3.60547ZM6.5 8.80078C7.04688 8.80078 7.53906 8.60938 7.94922 8.19922C8.33203 7.81641 8.55078 7.32422 8.55078 6.75C8.55078 6.20312 8.33203 5.71094 7.94922 5.30078C7.53906 4.91797 7.04688 4.69922 6.5 4.69922C5.92578 4.69922 5.43359 4.91797 5.05078 5.30078C4.64062 5.71094 4.44922 6.20312 4.44922 6.75C4.44922 7.32422 4.64062 7.81641 5.05078 8.19922C5.43359 8.60938 5.92578 8.80078 6.5 8.80078ZM10.5195 3.46875C10.5195 3.27734 10.4375 3.11328 10.3008 2.94922C10.1367 2.8125 9.97266 2.73047 9.78125 2.73047C9.5625 2.73047 9.39844 2.8125 9.26172 2.94922C9.09766 3.11328 9.04297 3.27734 9.04297 3.46875C9.04297 3.6875 9.09766 3.85156 9.26172 3.98828C9.39844 4.15234 9.5625 4.20703 9.78125 4.20703C9.97266 4.20703 10.1367 4.15234 10.2734 3.98828C10.4102 3.85156 10.4922 3.6875 10.5195 3.46875ZM12.5977 4.20703C12.5977 4.72656 12.625 5.57422 12.625 6.75C12.625 7.95312 12.5977 8.80078 12.5703 9.32031C12.543 9.83984 12.4609 10.2773 12.3516 10.6602C12.1875 11.125 11.9141 11.5352 11.5859 11.8633C11.2578 12.1914 10.8477 12.4375 10.4102 12.6016C10.0273 12.7383 9.5625 12.8203 9.04297 12.8477C8.52344 12.875 7.67578 12.875 6.5 12.875C5.29688 12.875 4.44922 12.875 3.92969 12.8477C3.41016 12.8203 2.97266 12.7383 2.58984 12.5742C2.125 12.4375 1.71484 12.1914 1.38672 11.8633C1.05859 11.5352 0.8125 11.125 0.648438 10.6602C0.511719 10.2773 0.429688 9.83984 0.402344 9.32031C0.375 8.80078 0.375 7.95312 0.375 6.75C0.375 5.57422 0.375 4.72656 0.402344 4.20703C0.429688 3.6875 0.511719 3.22266 0.648438 2.83984C0.8125 2.40234 1.05859 1.99219 1.38672 1.66406C1.71484 1.33594 2.125 1.0625 2.58984 0.898438C2.97266 0.789062 3.41016 0.707031 3.92969 0.679688C4.44922 0.652344 5.29688 0.625 6.5 0.625C7.67578 0.625 8.52344 0.652344 9.04297 0.679688C9.5625 0.707031 10.0273 0.789062 10.4102 0.898438C10.8477 1.0625 11.2578 1.33594 11.5859 1.66406C11.9141 1.99219 12.1875 2.40234 12.3516 2.83984C12.4609 3.22266 12.543 3.6875 12.5977 4.20703ZM11.2852 10.3594C11.3945 10.0586 11.4492 9.56641 11.5039 8.88281C11.5039 8.5 11.5312 7.92578 11.5312 7.1875V6.3125C11.5312 5.57422 11.5039 5 11.5039 4.61719C11.4492 3.93359 11.3945 3.44141 11.2852 3.14062C11.0664 2.59375 10.6562 2.18359 10.1094 1.96484C9.80859 1.85547 9.31641 1.80078 8.63281 1.74609C8.22266 1.74609 7.64844 1.71875 6.9375 1.71875H6.0625C5.32422 1.71875 4.75 1.74609 4.36719 1.74609C3.68359 1.80078 3.19141 1.85547 2.89062 1.96484C2.31641 2.18359 1.93359 2.59375 1.71484 3.14062C1.60547 3.44141 1.52344 3.93359 1.49609 4.61719C1.46875 5.02734 1.46875 5.60156 1.46875 6.3125V7.1875C1.46875 7.92578 1.46875 8.5 1.49609 8.88281C1.52344 9.56641 1.60547 10.0586 1.71484 10.3594C1.93359 10.9336 2.34375 11.3164 2.89062 11.5352C3.19141 11.6445 3.68359 11.7266 4.36719 11.7539C4.75 11.7812 5.32422 11.7812 6.0625 11.7812H6.9375C7.67578 11.7812 8.25 11.7812 8.63281 11.7539C9.31641 11.7266 9.80859 11.6445 10.1094 11.5352C10.6562 11.3164 11.0664 10.9062 11.2852 10.3594Z" fill="white"/>
</svg>
